<mxfile host="app.diagrams.net" modified="2024-03-01T02:16:26.751Z" agent="Mozilla/5.0 (Windows NT 10.0; Win64; x64) AppleWebKit/537.36 (KHTML, like Gecko) Chrome/121.0.0.0 Safari/537.36" version="24.0.0" etag="RUh1lIKBeuaxrecBCVfs" type="github">
  <diagram name="ページ1" id="XejeI-O2tC1nV4ufHMWK">
    <mxGraphModel>
      <root>
        <mxCell id="0" />
        <mxCell id="1" parent="0" />
      </root>
    </mxGraphModel>
  </diagram>
</mxfile>
